<svg xmlns="http://www.w3.org/2000/svg" xmlns:xlink="http://www.w3.org/1999/xlink" width="500" zoomAndPan="magnify" viewBox="0 0 375 374.999991" height="278" preserveAspectRatio="xMidYMid meet" version="1.0"><defs><clipPath id="eaf55aed75"><path d="M 189 218 L 283 218 L 283 291.273438 L 189 291.273438 Z M 189 218 " clip-rule="nonzero"/></clipPath><clipPath id="4a3143baf0"><path d="M 0 83.523438 L 360 83.523438 L 360 285 L 0 285 Z M 0 83.523438 " clip-rule="nonzero"/></clipPath></defs><g clip-path="url(#eaf55aed75)"><path fill="#262262" d="M 282.628906 264.238281 C 280.625 263.234375 278.867188 261.816406 277.53125 260.058594 L 264.488281 272.765625 C 263.152344 272.097656 261.730469 271.761719 260.144531 271.761719 C 259.640625 271.761719 259.054688 271.847656 258.554688 271.847656 L 247.1875 256.046875 C 249.023438 254.207031 250.113281 251.699219 250.113281 248.941406 C 250.113281 243.425781 245.679688 238.992188 240.164062 238.992188 C 237.65625 238.992188 235.316406 239.914062 233.558594 241.5 C 224.699219 236.152344 217.257812 228.796875 211.660156 220.101562 C 210.238281 217.84375 206.808594 218.261719 205.972656 220.769531 L 205.972656 220.855469 C 205.640625 221.773438 205.808594 222.859375 206.308594 223.695312 C 212.410156 233.226562 220.6875 241.25 230.382812 247.101562 C 230.382812 247.269531 230.300781 247.4375 230.300781 247.6875 L 213.078125 249.441406 C 213.582031 250.863281 213.832031 252.367188 213.832031 253.957031 C 213.832031 254.625 213.75 255.378906 213.664062 256.046875 L 231.722656 254.207031 C 233.476562 257.050781 236.652344 258.972656 240.246094 258.972656 C 240.582031 258.972656 240.917969 258.972656 241.167969 258.890625 L 252.785156 275.023438 C 252.285156 275.609375 251.785156 276.191406 251.449219 276.863281 C 235.902344 274.101562 221.273438 267.414062 208.898438 257.300781 C 209.316406 256.214844 209.484375 255.042969 209.484375 253.875 C 209.484375 248.355469 205.054688 243.925781 199.539062 243.925781 C 194.019531 243.925781 189.589844 248.355469 189.589844 253.875 C 189.589844 259.390625 194.019531 263.820312 199.539062 263.820312 C 201.460938 263.820312 203.300781 263.234375 204.804688 262.316406 C 217.675781 272.765625 233.226562 280.121094 250.277344 283.214844 C 251.03125 287.980469 255.128906 291.574219 260.144531 291.574219 C 265.660156 291.574219 270.089844 287.144531 270.089844 281.625 C 270.089844 280.121094 269.757812 278.617188 269.085938 277.363281 Z M 240.164062 254.625 C 237.070312 254.625 234.5625 252.117188 234.5625 249.023438 C 234.5625 245.933594 237.070312 243.425781 240.164062 243.425781 C 243.257812 243.425781 245.765625 245.933594 245.765625 249.023438 C 245.765625 252.117188 243.257812 254.625 240.164062 254.625 Z M 260.058594 287.308594 C 256.964844 287.308594 254.457031 284.800781 254.457031 281.710938 C 254.457031 278.617188 256.964844 276.109375 260.058594 276.109375 C 263.152344 276.109375 265.660156 278.617188 265.660156 281.710938 C 265.742188 284.800781 263.152344 287.308594 260.058594 287.308594 Z M 260.058594 287.308594 " fill-opacity="1" fill-rule="nonzero"/></g><path fill="#262262" d="M 368.648438 188.835938 C 368.730469 187.5 368.730469 186.078125 368.730469 184.742188 C 368.898438 155.148438 356.109375 128.398438 335.710938 109.839844 C 334.792969 111.847656 333.453125 113.601562 331.78125 114.941406 C 331.867188 115.023438 331.949219 115.109375 332.03125 115.191406 C 352.261719 134 363.128906 160.082031 362.125 187.75 C 362.125 188 362.125 188.253906 362.125 188.503906 C 358.03125 189.757812 355.019531 193.519531 355.019531 198.03125 C 355.019531 198.785156 355.105469 199.539062 355.273438 200.207031 L 336.796875 212.160156 C 334.957031 210.152344 332.367188 208.898438 329.441406 208.898438 C 323.925781 208.898438 319.492188 213.332031 319.492188 218.847656 C 319.492188 221.019531 320.164062 223.027344 321.332031 224.617188 C 314.8125 233.226562 306.203125 240.164062 296.339844 244.761719 C 294.5 242.671875 291.824219 241.335938 288.816406 241.335938 C 283.714844 241.335938 279.453125 245.179688 278.953125 250.195312 C 275.355469 250.78125 271.59375 251.113281 267.832031 251.03125 C 263.234375 251.03125 258.804688 250.53125 254.542969 249.609375 C 254.457031 251.867188 253.789062 253.957031 252.703125 255.878906 C 258.054688 257.050781 263.570312 257.636719 269.253906 257.550781 C 273.015625 257.46875 276.777344 257.132812 280.457031 256.546875 C 282.210938 259.390625 285.304688 261.230469 288.898438 261.230469 C 291.742188 261.230469 294.332031 260.058594 296.085938 258.136719 L 315.648438 260.980469 C 315.648438 260.5625 315.566406 260.144531 315.566406 259.726562 C 315.566406 257.886719 315.898438 256.128906 316.566406 254.457031 L 298.761719 251.867188 C 298.761719 251.699219 298.761719 251.449219 298.761719 251.28125 C 298.761719 251.113281 298.761719 250.949219 298.761719 250.863281 C 309.796875 245.765625 319.328125 237.992188 326.597656 228.460938 C 326.851562 228.542969 327.101562 228.628906 327.351562 228.628906 L 327.351562 250.113281 C 323.089844 251.199219 319.910156 255.128906 319.910156 259.726562 C 319.910156 260.726562 320.078125 261.648438 320.328125 262.566406 C 306.621094 271.761719 290.652344 277.113281 273.9375 278.117188 C 274.1875 279.203125 274.355469 280.371094 274.355469 281.625 C 274.355469 282.628906 274.269531 283.632812 274.019531 284.636719 C 292.242188 283.546875 309.378906 277.445312 323.839844 267.667969 C 325.511719 268.921875 327.601562 269.671875 329.859375 269.671875 C 335.375 269.671875 339.808594 265.242188 339.808594 259.726562 C 339.808594 258.136719 339.472656 256.714844 338.804688 255.378906 C 351.761719 242.503906 361.375 226.121094 365.886719 207.980469 C 370.988281 207.5625 375 203.300781 375 198.03125 C 374.917969 193.9375 372.324219 190.34375 368.648438 188.835938 Z M 329.441406 224.53125 C 326.347656 224.53125 323.839844 222.023438 323.839844 218.929688 C 323.839844 215.839844 326.347656 213.332031 329.441406 213.332031 C 332.535156 213.332031 335.042969 215.839844 335.042969 218.929688 C 335.042969 222.023438 332.535156 224.53125 329.441406 224.53125 Z M 334.539062 251.03125 C 334.289062 250.949219 334.121094 250.78125 333.871094 250.695312 L 333.871094 227.792969 C 337.132812 226.121094 339.390625 222.777344 339.390625 218.929688 C 339.390625 218.765625 339.390625 218.597656 339.390625 218.429688 L 358.78125 205.890625 C 359.035156 206.140625 359.367188 206.308594 359.617188 206.476562 C 355.523438 223.277344 346.914062 238.742188 334.539062 251.03125 Z M 364.96875 203.800781 C 361.875 203.800781 359.367188 201.292969 359.367188 198.199219 C 359.367188 195.105469 361.875 192.597656 364.96875 192.597656 C 368.0625 192.597656 370.570312 195.105469 370.570312 198.199219 C 370.570312 201.292969 368.144531 203.800781 364.96875 203.800781 Z M 364.96875 203.800781 " fill-opacity="1" fill-rule="nonzero"/><g clip-path="url(#4a3143baf0)"><path fill="#a3b3fc" d="M 340.476562 158.160156 C 340.726562 157.324219 340.808594 156.488281 340.808594 155.566406 C 340.808594 150.886719 337.632812 146.957031 333.285156 145.871094 L 328.941406 111.765625 C 331.28125 109.925781 332.703125 107.082031 332.703125 103.988281 C 332.703125 98.472656 328.269531 94.042969 322.753906 94.042969 C 320.414062 94.042969 318.324219 94.878906 316.652344 96.132812 C 302.273438 88.191406 285.722656 83.675781 268.167969 83.675781 C 257.132812 83.675781 246.515625 85.433594 236.652344 88.691406 C 234.8125 86.769531 232.304688 85.601562 229.464844 85.601562 C 223.945312 85.601562 219.515625 90.03125 219.515625 95.546875 C 219.515625 98.304688 220.601562 100.730469 222.359375 102.570312 L 211.824219 129.066406 C 208.648438 130.320312 206.308594 133.246094 205.722656 136.675781 L 185.492188 146.539062 C 186.914062 148.210938 187.835938 150.21875 188.335938 152.390625 L 206.976562 143.277344 C 207.0625 143.363281 207.0625 143.445312 207.144531 143.53125 C 200.957031 152.808594 196.777344 163.59375 195.359375 175.210938 C 194.6875 180.394531 190.257812 184.238281 185.074219 184.238281 C 178.804688 184.238281 174.042969 178.804688 174.792969 172.621094 C 175.128906 170.195312 175.460938 167.773438 175.964844 165.429688 C 180.8125 164.761719 184.492188 160.582031 184.492188 155.566406 C 184.492188 152.640625 183.238281 150.050781 181.230469 148.210938 C 185.910156 136.925781 192.765625 126.644531 201.628906 117.699219 C 206.726562 112.601562 212.328125 108.167969 218.261719 104.40625 C 216.925781 102.734375 215.921875 100.730469 215.503906 98.554688 C 197.613281 109.589844 183.488281 126.058594 175.296875 145.621094 C 175.042969 145.621094 174.792969 145.621094 174.542969 145.621094 C 169.027344 145.621094 164.59375 150.050781 164.59375 155.566406 C 164.59375 159.246094 166.601562 162.503906 169.609375 164.261719 C 168.355469 170.53125 167.6875 176.96875 167.605469 183.570312 C 167.355469 220.519531 138.011719 250.949219 101.0625 251.113281 C 63.867188 251.28125 33.605469 220.9375 33.9375 183.65625 C 34.273438 146.957031 64.535156 117.199219 101.148438 117.449219 C 118.035156 117.53125 133.414062 123.886719 145.117188 134.335938 C 153.058594 141.441406 165.597656 139.433594 170.78125 130.070312 C 170.863281 129.988281 170.949219 129.820312 170.949219 129.738281 C 174.792969 122.882812 173.289062 114.273438 167.4375 109.003906 C 149.464844 93.039062 125.722656 83.425781 99.726562 83.675781 C 44.304688 84.179688 0 129.066406 0.0820312 184.492188 C 0.167969 239.996094 45.222656 284.886719 100.730469 284.886719 C 156.070312 284.886719 200.957031 240.246094 201.375 184.992188 C 201.460938 171.28125 205.554688 158.410156 212.578125 147.710938 C 213.496094 148.042969 214.585938 148.210938 215.585938 148.210938 C 221.105469 148.210938 225.535156 143.78125 225.535156 138.261719 C 225.535156 133.917969 222.777344 130.238281 218.929688 128.902344 L 228.210938 105.496094 C 228.628906 105.578125 228.960938 105.578125 229.378906 105.578125 C 234.898438 105.578125 239.328125 101.148438 239.328125 95.628906 C 239.328125 95.296875 239.328125 94.960938 239.246094 94.710938 C 248.355469 91.785156 257.886719 90.199219 267.582031 90.199219 C 282.964844 90.113281 298.09375 93.792969 311.550781 100.8125 L 287.058594 106.332031 C 288.230469 108.167969 288.980469 110.257812 289.234375 112.515625 L 313.308594 107.082031 C 314.5625 111.011719 318.238281 113.855469 322.585938 113.9375 L 325.847656 139.015625 C 315.730469 126.140625 301.355469 116.78125 284.96875 112.851562 C 284.300781 107.917969 280.121094 104.074219 275.023438 104.074219 C 273.351562 104.074219 271.847656 104.492188 270.507812 105.160156 L 243.675781 96.382812 C 243.507812 98.640625 242.839844 100.8125 241.835938 102.652344 L 265.742188 110.425781 C 265.660156 110.59375 265.660156 110.761719 265.578125 110.929688 C 249.695312 111.511719 235.066406 117.113281 223.363281 126.226562 C 225.285156 127.480469 226.871094 129.152344 227.960938 131.074219 C 238.492188 122.964844 251.53125 117.949219 265.742188 117.449219 C 267.164062 121.292969 270.757812 123.96875 275.105469 123.96875 C 278.699219 123.96875 281.875 122.046875 283.632812 119.203125 C 300.683594 123.214844 315.230469 133.75 324.425781 148.042969 C 322.335938 149.882812 321 152.558594 321 155.566406 C 321 161.085938 325.429688 165.515625 330.945312 165.515625 C 331.449219 165.515625 331.867188 165.515625 332.367188 165.429688 C 334.207031 171.617188 335.125 178.136719 335.042969 184.910156 C 334.957031 191.847656 333.871094 198.535156 331.78125 204.886719 C 333.957031 205.222656 336.046875 206.140625 337.800781 207.394531 C 340.140625 200.375 341.480469 192.765625 341.5625 184.992188 C 341.644531 179.308594 340.976562 173.707031 339.808594 168.355469 L 354.4375 188.585938 C 355.941406 186.914062 357.78125 185.660156 359.785156 184.824219 Z M 221.1875 138.261719 C 221.1875 141.355469 218.679688 143.863281 215.585938 143.863281 C 212.496094 143.863281 209.988281 141.355469 209.988281 138.261719 C 209.988281 135.171875 212.496094 132.664062 215.585938 132.664062 C 218.679688 132.664062 221.1875 135.171875 221.1875 138.261719 Z M 229.378906 101.230469 C 226.289062 101.230469 223.78125 98.722656 223.78125 95.628906 C 223.78125 92.539062 226.289062 90.03125 229.378906 90.03125 C 232.472656 90.03125 234.980469 92.539062 234.980469 95.628906 C 234.980469 98.722656 232.558594 101.230469 229.378906 101.230469 Z M 330.863281 161.167969 C 327.769531 161.167969 325.261719 158.660156 325.261719 155.566406 C 325.261719 152.472656 327.769531 149.964844 330.863281 149.964844 C 333.957031 149.964844 336.464844 152.472656 336.464844 155.566406 C 336.546875 158.660156 334.039062 161.167969 330.863281 161.167969 Z M 330.863281 161.167969 " fill-opacity="1" fill-rule="nonzero"/></g></svg>